<svg width="20" height="20" viewBox="0 0 20 20" fill="none" xmlns="http://www.w3.org/2000/svg">
<path d="M11.0416 18.334H8.54165C5.79179 18.334 4.41685 18.334 3.56259 17.4797C2.70831 16.6254 2.70831 15.2505 2.70831 12.5007V9.16732C2.70831 7.59597 2.70831 6.81029 3.19647 6.32214C3.68462 5.83398 4.4703 5.83398 6.04165 5.83398H12.7083C14.2796 5.83398 15.0653 5.83398 15.5535 6.32214C16.0416 6.81029 16.0416 7.59597 16.0416 9.16732V10.834" stroke="#1DBF73" stroke-width="1.25" stroke-linecap="round" stroke-linejoin="round"/>
<path d="M12.7084 7.91602C12.7084 4.69436 11.2159 1.66602 9.37502 1.66602C7.53407 1.66602 6.04169 4.69436 6.04169 7.91602" stroke="#1DBF73" stroke-width="1.25" stroke-linecap="round" stroke-linejoin="round"/>
<path d="M12.7083 15.834H17.7083M15.2083 18.334V13.334" stroke="#1DBF73" stroke-width="1.25" stroke-linecap="round" stroke-linejoin="round"/>
</svg>
