<svg width="40" height="40" viewBox="0 0 20 20" fill="none" xmlns="http://www.w3.org/2000/svg">
  <defs>
    <!-- userSpaceOnUse — brauzerda qora fallback kamayadi -->
    <radialGradient id="crownDome" cx="8.5" cy="5" r="11" gradientUnits="userSpaceOnUse">
      <stop offset="0%" stop-color="#F2D78C"/>
      <stop offset="0.35" stop-color="#D4A84B"/>
      <stop offset="0.65" stop-color="#A67C1A"/>
      <stop offset="1" stop-color="#6B4E12"/>
    </radialGradient>
    <!-- Yonlar biroz soyali (qora emas — jigarrang tilla) -->
    <linearGradient id="crownSides" x1="2" y1="10" x2="18" y2="10" gradientUnits="userSpaceOnUse">
      <stop offset="0%" stop-color="#5C440E" stop-opacity="0.45"/>
      <stop offset="0.28" stop-color="#C9A227" stop-opacity="0"/>
      <stop offset="0.72" stop-color="#C9A227" stop-opacity="0"/>
      <stop offset="100%" stop-color="#5C440E" stop-opacity="0.45"/>
    </linearGradient>
    <!-- Yuqori yaltiroq nuqtasi -->
    <radialGradient id="crownShine" cx="10" cy="4.5" r="6" gradientUnits="userSpaceOnUse">
      <stop offset="0%" stop-color="#FFFDF5" stop-opacity="0.65"/>
      <stop offset="0.5" stop-color="#E8C76A" stop-opacity="0.2"/>
      <stop offset="1" stop-color="#8B6914" stop-opacity="0"/>
    </radialGradient>
  </defs>
  <path
    d="M2.93182 8.58752C2.60844 7.69248 2.44675 7.24498 2.5157 6.95822C2.59111 6.64457 2.81416 6.40005 3.09927 6.31848C3.35994 6.2439 3.76544 6.42412 4.57644 6.78457C5.29377 7.1034 5.65244 7.26281 5.98943 7.25394C6.36047 7.24417 6.7174 7.09538 7.00133 6.83211C7.25921 6.59299 7.43217 6.21196 7.77811 5.44988L8.5405 3.77039C9.17733 2.36747 9.49575 1.66602 10 1.66602C10.5042 1.66602 10.8227 2.36747 11.4595 3.77039L12.2219 5.44988C12.5678 6.21196 12.7408 6.59299 12.9987 6.83211C13.2826 7.09538 13.6395 7.24417 14.0106 7.25394C14.3476 7.26281 14.7062 7.1034 15.4236 6.78457C16.2346 6.42412 16.6401 6.2439 16.9007 6.31848C17.1858 6.40005 17.4089 6.64457 17.4843 6.95822C17.5532 7.24498 17.3916 7.69248 17.0682 8.58743L15.6782 12.4345C15.0835 14.0802 14.7862 14.903 14.164 15.3678C13.5418 15.8327 12.7378 15.8327 11.1298 15.8327H8.87016C7.26216 15.8327 6.45814 15.8327 5.83596 15.3678C5.21378 14.903 4.91647 14.0802 4.32185 12.4345L2.93182 8.58752Z"
    fill="url(#crownDome)"
    stroke="#5C440E"
    stroke-width="0.35"
  />
  <path
    d="M2.93182 8.58752C2.60844 7.69248 2.44675 7.24498 2.5157 6.95822C2.59111 6.64457 2.81416 6.40005 3.09927 6.31848C3.35994 6.2439 3.76544 6.42412 4.57644 6.78457C5.29377 7.1034 5.65244 7.26281 5.98943 7.25394C6.36047 7.24417 6.7174 7.09538 7.00133 6.83211C7.25921 6.59299 7.43217 6.21196 7.77811 5.44988L8.5405 3.77039C9.17733 2.36747 9.49575 1.66602 10 1.66602C10.5042 1.66602 10.8227 2.36747 11.4595 3.77039L12.2219 5.44988C12.5678 6.21196 12.7408 6.59299 12.9987 6.83211C13.2826 7.09538 13.6395 7.24417 14.0106 7.25394C14.3476 7.26281 14.7062 7.1034 15.4236 6.78457C16.2346 6.42412 16.6401 6.2439 16.9007 6.31848C17.1858 6.40005 17.4089 6.64457 17.4843 6.95822C17.5532 7.24498 17.3916 7.69248 17.0682 8.58743L15.6782 12.4345C15.0835 14.0802 14.7862 14.903 14.164 15.3678C13.5418 15.8327 12.7378 15.8327 11.1298 15.8327H8.87016C7.26216 15.8327 6.45814 15.8327 5.83596 15.3678C5.21378 14.903 4.91647 14.0802 4.32185 12.4345L2.93182 8.58752Z"
    fill="url(#crownSides)"
  />
  <path
    d="M2.93182 8.58752C2.60844 7.69248 2.44675 7.24498 2.5157 6.95822C2.59111 6.64457 2.81416 6.40005 3.09927 6.31848C3.35994 6.2439 3.76544 6.42412 4.57644 6.78457C5.29377 7.1034 5.65244 7.26281 5.98943 7.25394C6.36047 7.24417 6.7174 7.09538 7.00133 6.83211C7.25921 6.59299 7.43217 6.21196 7.77811 5.44988L8.5405 3.77039C9.17733 2.36747 9.49575 1.66602 10 1.66602C10.5042 1.66602 10.8227 2.36747 11.4595 3.77039L12.2219 5.44988C12.5678 6.21196 12.7408 6.59299 12.9987 6.83211C13.2826 7.09538 13.6395 7.24417 14.0106 7.25394C14.3476 7.26281 14.7062 7.1034 15.4236 6.78457C16.2346 6.42412 16.6401 6.2439 16.9007 6.31848C17.1858 6.40005 17.4089 6.64457 17.4843 6.95822C17.5532 7.24498 17.3916 7.69248 17.0682 8.58743L15.6782 12.4345C15.0835 14.0802 14.7862 14.903 14.164 15.3678C13.5418 15.8327 12.7378 15.8327 11.1298 15.8327H8.87016C7.26216 15.8327 6.45814 15.8327 5.83596 15.3678C5.21378 14.903 4.91647 14.0802 4.32185 12.4345L2.93182 8.58752Z"
    fill="url(#crownShine)"
  />
  <path d="M10 11.666H10.0075" stroke="#6B4E12" stroke-width="1.1" stroke-linecap="round" stroke-linejoin="round"/>
  <path d="M5.83325 18.334H14.1666" stroke="#8B6914" stroke-width="1.35" stroke-linecap="round"/>
</svg>
