<svg width="14" height="16" viewBox="0 0 14 16" fill="none" xmlns="http://www.w3.org/2000/svg">
<g clip-path="url(#clip0_2_41402)">
<path d="M7.07276 9.31765H5.97299C5.90897 9.31793 5.84783 9.2942 5.80476 9.25235C5.7617 9.21051 5.74076 9.15449 5.74717 9.09822L5.84427 8.12078C5.85371 8.01688 5.9521 7.93692 6.0701 7.93726H7.16987C7.23389 7.93697 7.29503 7.96071 7.3381 8.00255C7.38116 8.04439 7.40209 8.10042 7.39569 8.15668L7.29859 9.13412C7.28915 9.23802 7.19075 9.31798 7.07276 9.31765ZM7.24903 7.40392H6.12881C6.00507 7.40392 5.90476 7.30872 5.90476 7.19129L6.20946 3.88908C6.22313 3.78171 6.31955 3.70119 6.43351 3.70197H7.55373C7.67747 3.70197 7.77778 3.79717 7.77778 3.9146L7.46411 7.21893C7.44989 7.32229 7.35881 7.40063 7.24903 7.40392ZM13.8358 3.55311C13.955 3.68954 14.0133 3.86718 13.9974 4.04609L13.5596 8.9519C13.5456 9.11237 13.4729 9.2625 13.355 9.37475L9.77444 12.7816C9.64662 12.9027 9.47559 12.9703 9.29771 12.9699H5.48595L2.13046 16L2.3903 12.9679H0.683912C0.492261 12.9681 0.309354 12.8894 0.179797 12.7511C0.0502409 12.6127 -0.0140573 12.4275 0.00258317 12.2405L1.04401 0.601204C1.07975 0.259142 1.37429 -0.000754985 1.72534 1.64782e-06H10.4148C10.6148 -5.49015e-05 10.8047 0.0856254 10.9345 0.234471L13.8358 3.55311ZM11.1821 8.01603L11.4604 4.98798C11.4712 4.80845 11.4077 4.63222 11.2844 4.499L9.64758 2.6473C9.51787 2.501 9.3298 2.41694 9.13198 2.41684H3.97598C3.62492 2.41608 3.33039 2.67598 3.29465 3.01804L2.68084 9.83166C2.66671 10.0181 2.73187 10.2019 2.86089 10.3397C2.98991 10.4775 3.17132 10.5569 3.36217 10.5591H8.43224C8.60814 10.5595 8.77742 10.4935 8.90487 10.3748L10.9775 8.44088C11.0959 8.32813 11.1685 8.17721 11.1821 8.01603Z" fill="#4E505C"/>
</g>
<defs>
<clipPath id="clip0_2_41402">
<rect width="14" height="16" fill="white"/>
</clipPath>
</defs>
</svg>
