<svg width="14" height="14" viewBox="0 0 14 14" fill="none" xmlns="http://www.w3.org/2000/svg">
<path fill-rule="evenodd" clip-rule="evenodd" d="M3.22026 3.91623C4.21522 3.13948 5.50059 2.47949 7.00008 2.47949C8.4996 2.47949 9.78491 3.13948 10.7799 3.91623C11.7758 4.69369 12.5118 5.61184 12.9236 6.1892L12.9546 6.23248C13.1023 6.43788 13.2709 6.67238 13.2709 7.00033C13.2709 7.32828 13.1023 7.56278 12.9546 7.76817L12.9236 7.81145C12.5118 8.38883 11.7758 9.30694 10.7799 10.0844C9.78491 10.8612 8.4996 11.5212 7.00008 11.5212C5.50059 11.5212 4.21522 10.8612 3.22026 10.0844C2.22441 9.30694 1.48832 8.38883 1.07657 7.81145L1.04553 7.76817C0.897855 7.56278 0.729248 7.32828 0.729248 7.00033C0.729248 6.67238 0.897855 6.43788 1.04553 6.23248L1.07657 6.1892C1.48832 5.61184 2.22441 4.69369 3.22026 3.91623ZM4.95842 7.00033C4.95842 8.12791 5.8725 9.04199 7.00008 9.04199C8.12767 9.04199 9.04175 8.12791 9.04175 7.00033C9.04175 5.87274 8.12767 4.95866 7.00008 4.95866C5.8725 4.95866 4.95842 5.87274 4.95842 7.00033Z" fill="white"/>
</svg>
