<svg width="32" height="32" viewBox="0 0 32 32" fill="none" xmlns="http://www.w3.org/2000/svg">
<path d="M25.8918 20.8806C28.2532 18.1657 30.3333 14.871 30.3333 11.5928C30.3332 7.26969 27.1312 3.66699 22.6666 3.66699C20.5442 3.66699 18.4882 4.35057 16 6.62011C13.5117 4.35057 11.4557 3.66699 9.33329 3.66699C4.86871 3.66699 1.66669 7.26969 1.66663 11.5928C1.66663 14.871 3.74676 18.1657 6.10803 20.8806C8.50601 23.6375 11.3721 25.9962 13.2825 27.4249L13.5924 27.6383C15.1749 28.6325 17.198 28.5609 18.7174 27.4249L19.4765 26.8467C21.3376 25.4003 23.7937 23.2929 25.8918 20.8806Z" fill="white"/>
</svg>
