<svg width="14" height="14" viewBox="0 0 14 14" fill="none" xmlns="http://www.w3.org/2000/svg">
<path fill-rule="evenodd" clip-rule="evenodd" d="M6.29697 0.764709C6.16181 0.70693 6.00664 0.720889 5.88397 0.801862C5.76131 0.882834 5.6875 1.02001 5.6875 1.16699C5.6875 2.39319 4.90347 3.30667 4.04283 4.30936C3.16297 5.33585 2.1875 6.53675 2.1875 8.45866C2.1875 11.1166 4.34213 13.2712 7 13.2712C9.65784 13.2712 11.8125 11.1166 11.8125 8.45866C11.8125 7.8286 11.8051 6.54591 10.55 4.97702C10.4357 4.83412 10.2444 4.77748 10.0707 4.83503C9.89712 4.89255 9.7776 5.05214 9.77112 5.23492C9.77112 5.23492 9.75882 5.37522 9.74884 5.4401C9.72842 5.5728 9.69208 5.73659 9.6306 5.88639C9.56754 6.04004 9.49241 6.14376 9.41552 6.19988C9.35521 6.24392 9.26368 6.28259 9.08816 6.2459C8.93801 6.21452 8.86223 6.15922 8.8137 6.10211C8.75852 6.03724 8.70841 5.93388 8.67195 5.76321C8.63526 5.59158 8.61852 5.38288 8.6086 5.12843C8.60498 5.03646 8.60224 4.93284 8.59927 4.82378C8.59477 4.65441 8.58987 4.47191 8.58107 4.29967C8.55085 3.70929 8.46942 3.02758 8.14234 2.38919C7.80815 1.73682 7.23707 1.16659 6.29697 0.764709ZM6.85253 6.37949C6.84081 6.24264 6.76538 6.1192 6.64895 6.04628C6.53257 5.97331 6.38861 5.95931 6.26033 6.00837C5.69973 6.22292 5.27026 6.73858 4.9906 7.23208C4.70917 7.72873 4.52083 8.3067 4.52083 8.75033C4.52083 9.56822 4.77998 10.2625 5.2341 10.7569C5.68902 11.2522 6.31762 11.5219 7 11.5219C8.46516 11.5219 9.47917 10.042 9.47917 8.45936C9.47917 8.31586 9.40882 8.18146 9.29087 8.09973C9.17292 8.01801 9.02242 7.99928 8.88807 8.04968C8.48097 8.20234 8.17617 8.21564 7.94996 8.16682C7.72642 8.11858 7.5439 8.00214 7.39095 7.83204C7.07023 7.47539 6.89722 6.89883 6.85253 6.37949Z" fill="white"/>
</svg>
