<svg width="53" height="22" viewBox="0 0 53 22" fill="none" xmlns="http://www.w3.org/2000/svg">
<rect width="53" height="22" rx="8" fill="black" fill-opacity="0.3"/>
<path d="M12.2031 15H11.1484V6.54492H16.2812V7.49414H12.2031V10.4004H15.9473V11.3379H12.2031V15ZM19.6211 15.1055C17.9336 15.1055 16.7969 13.8926 16.7969 11.9531C16.7969 10.0078 17.9336 8.80078 19.6211 8.80078C21.3027 8.80078 22.4395 10.0078 22.4395 11.9531C22.4395 13.8926 21.3027 15.1055 19.6211 15.1055ZM19.6211 14.209C20.6992 14.209 21.4023 13.3887 21.4023 11.9531C21.4023 10.5176 20.6992 9.69727 19.6211 9.69727C18.543 9.69727 17.834 10.5176 17.834 11.9531C17.834 13.3887 18.543 14.209 19.6211 14.209ZM23.5234 15V6.54492H24.543V15H23.5234ZM25.9727 15V6.54492H26.9922V15H25.9727ZM30.8945 15.1055C29.207 15.1055 28.0703 13.8926 28.0703 11.9531C28.0703 10.0078 29.207 8.80078 30.8945 8.80078C32.5762 8.80078 33.7129 10.0078 33.7129 11.9531C33.7129 13.8926 32.5762 15.1055 30.8945 15.1055ZM30.8945 14.209C31.9727 14.209 32.6758 13.3887 32.6758 11.9531C32.6758 10.5176 31.9727 9.69727 30.8945 9.69727C29.8164 9.69727 29.1074 10.5176 29.1074 11.9531C29.1074 13.3887 29.8164 14.209 30.8945 14.209ZM42.4961 8.90625L40.7969 15H39.7598L38.3828 10.2832H38.3594L36.9883 15H35.9512L34.2461 8.90625H35.2598L36.4785 13.8633H36.502L37.8789 8.90625H38.8633L40.2461 13.8633H40.2695L41.4883 8.90625H42.4961Z" fill="white"/>
</svg>
