<svg width="20" height="20" viewBox="0 0 20 20" fill="none" xmlns="http://www.w3.org/2000/svg">
<path d="M14.9299 2.5654C16.2582 2.56546 17.4666 3.2885 18.0833 4.45407C18.6675 5.558 19.3654 7.34776 19.3655 9.59665C19.3655 11.7408 18.9733 13.6906 18.3372 15.1074C18.0192 15.8154 17.6381 16.395 17.2102 16.7988C16.7817 17.2031 16.3014 17.4345 15.7903 17.4345C15.1123 17.4344 14.5835 16.9873 14.1799 16.3886C13.7752 15.7882 13.4813 15.015 13.2756 14.3164C13.148 13.8816 12.7332 13.5742 12.2659 13.5742H7.73364C7.26654 13.5742 6.85234 13.8814 6.72388 14.3164C6.51816 15.015 6.22443 15.7882 5.81958 16.3886C5.41584 16.9874 4.887 17.4345 4.20923 17.4345C3.69804 17.4345 3.2178 17.2031 2.78931 16.7988C2.36141 16.395 1.98035 15.8155 1.66235 15.1074C1.02618 13.6906 0.63501 11.7408 0.63501 9.59665C0.635076 7.34776 1.33198 5.55777 1.91626 4.45309C2.53291 3.28841 3.74146 2.56555 5.06958 2.5654H14.9299ZM5.06958 3.53708C4.1019 3.53723 3.22364 4.06288 2.77563 4.90817C2.2427 5.9167 1.60676 7.54756 1.60669 9.59665C1.60669 11.5793 1.96161 13.308 2.47192 14.5371C2.7272 15.1518 3.0198 15.6376 3.32251 15.9677C3.6266 16.2994 3.93033 16.4629 4.20923 16.4629C4.45183 16.4628 4.73053 16.2681 5.01489 15.8457C5.29511 15.4293 5.56283 14.8168 5.79126 14.042C6.04103 13.1942 6.84 12.6026 7.73364 12.6025H12.2659C13.1596 12.6025 13.9585 13.1942 14.2083 14.042C14.4367 14.817 14.7053 15.4293 14.9856 15.8457C15.2699 16.268 15.5477 16.4627 15.7903 16.4629C16.0691 16.4629 16.3729 16.2993 16.677 15.9677C16.9797 15.6376 17.2723 15.1518 17.5276 14.5371C18.0379 13.308 18.3928 11.5793 18.3928 9.59665C18.3928 7.54754 17.7568 5.91589 17.2239 4.90817C16.7766 4.06293 15.8977 3.53714 14.9299 3.53708H5.06958ZM13.8606 8.74216C14.3419 8.74226 14.7327 9.13286 14.7327 9.61423C14.7325 10.0955 14.3419 10.4862 13.8606 10.4863C13.3793 10.4863 12.9887 10.0955 12.9885 9.61423C12.9885 9.1328 13.3792 8.74216 13.8606 8.74216ZM5.75317 5.65329C6.0215 5.65329 6.2395 5.87129 6.2395 6.13962V7.19724H7.29712C7.56541 7.19724 7.78338 7.41529 7.78345 7.68356C7.78345 7.95189 7.56545 8.16989 7.29712 8.16989H6.2395V9.22751C6.2395 9.49584 6.0215 9.71384 5.75317 9.71384C5.4849 9.71377 5.26685 9.49579 5.26685 9.22751V8.16989H4.20923C3.9409 8.16989 3.7229 7.95189 3.7229 7.68356C3.72297 7.41529 3.94094 7.19724 4.20923 7.19724H5.26685V6.13962C5.26685 5.87133 5.4849 5.65336 5.75317 5.65329ZM12.3167 7.19724C12.7977 7.19748 13.1885 7.58823 13.1887 8.06931C13.1887 8.55059 12.7979 8.94113 12.3167 8.94138C11.8352 8.94138 11.4446 8.55074 11.4446 8.06931C11.4448 7.58808 11.8354 7.19724 12.3167 7.19724ZM15.4045 7.19724C15.8858 7.19724 16.2764 7.58808 16.2766 8.06931C16.2766 8.55074 15.886 8.94138 15.4045 8.94138C14.9231 8.94133 14.5325 8.55071 14.5325 8.06931C14.5327 7.5881 14.9233 7.19728 15.4045 7.19724ZM13.8606 5.65329C14.3419 5.65339 14.7326 6.04407 14.7327 6.52536C14.7327 7.00673 14.3419 7.39733 13.8606 7.39743C13.3792 7.39743 12.9885 7.00679 12.9885 6.52536C12.9886 6.04401 13.3792 5.65329 13.8606 5.65329Z" fill="#A4A7AE" stroke="#A4A7AE" stroke-width="0.2"/>
</svg>
