<svg width="24" height="24" viewBox="0 0 24 24" fill="none" xmlns="http://www.w3.org/2000/svg">
<path d="M1.33789 9.89257C1.24347 10.3768 1.19626 10.619 1.34722 10.8025C1.49818 10.9861 1.76037 10.9861 2.28475 10.9861H5.99473C6.4489 10.9861 6.67599 10.9861 6.82072 10.8517C6.96545 10.7173 6.98312 10.484 7.01844 10.0175C7.17915 7.89475 7.5946 5.96894 8.20067 4.44739C8.58093 3.49273 9.08165 2.54134 9.82321 1.81579C10.14 1.50588 10.2983 1.35092 10.2621 1.284C10.2258 1.21707 10.0244 1.26223 9.62167 1.35255C5.43808 2.29075 2.16472 5.65168 1.33789 9.89257Z" fill="#4E505C"/>
<path d="M2.28477 13.0156C1.76037 13.0156 1.49818 13.0156 1.34722 13.1992C1.19626 13.3827 1.24348 13.6249 1.33791 14.1092C2.16478 18.35 5.43807 21.7108 9.62156 22.649C10.0242 22.7393 10.2256 22.7844 10.2618 22.7175C10.2981 22.6506 10.1398 22.4957 9.8231 22.1859C9.08158 21.4603 8.58089 20.509 8.20065 19.5544C7.59458 18.0328 7.17913 16.107 7.01842 13.9843C6.9831 13.5177 6.96543 13.2844 6.8207 13.15C6.67597 13.0156 6.44888 13.0156 5.99471 13.0156H2.28477Z" fill="#4E505C"/>
<path d="M14.171 22.1871C13.8543 22.4967 13.6959 22.6516 13.7322 22.7185C13.7684 22.7854 13.9697 22.7404 14.3723 22.6504C18.5587 21.7141 21.8348 18.352 22.6621 14.1092C22.7565 13.6249 22.8037 13.3827 22.6528 13.1992C22.5018 13.0156 22.2396 13.0156 21.7152 13.0156H18.0007C17.5465 13.0156 17.3194 13.0156 17.1747 13.15C17.0299 13.2844 17.0123 13.5177 16.9769 13.9843C16.8162 16.107 16.4008 18.0328 15.7947 19.5544C15.4143 20.5095 14.9132 21.4614 14.171 22.1871Z" fill="#4E505C"/>
<path d="M21.7152 10.9852C22.2396 10.9852 22.5018 10.9852 22.6528 10.8016C22.8037 10.6181 22.7565 10.3759 22.6621 9.89164C21.8349 5.6487 18.5587 2.28656 14.3722 1.35026C13.9695 1.26019 13.7681 1.21516 13.7319 1.28209C13.6957 1.34903 13.8541 1.5039 14.1709 1.81363C14.9132 2.5393 15.4143 3.49129 15.7947 4.44646C16.4008 5.96801 16.8162 7.89382 16.9769 10.0166C17.0123 10.4831 17.0299 10.7164 17.1747 10.8508C17.3194 10.9852 17.5465 10.9852 18.0007 10.9852H21.7152Z" fill="#4E505C"/>
<path d="M13.9365 5.30032C14.4362 6.52593 14.8079 8.13294 14.9692 9.95969C15.0113 10.437 15.0324 10.6757 14.8819 10.8378C14.7315 11 14.4815 11 13.9815 11H10.0185C9.51853 11 9.26852 11 9.11807 10.8378C8.96763 10.6757 8.9887 10.437 9.03085 9.95969C9.19214 8.13294 9.56382 6.52593 10.0635 5.30032C10.404 4.46523 10.7839 3.85653 11.1536 3.47296C11.5213 3.0915 11.8077 3 12 3C12.1923 3 12.4787 3.0915 12.8464 3.47296C13.2161 3.85653 13.596 4.46523 13.9365 5.30032Z" fill="#4E505C"/>
<path d="M10.0635 18.6997C9.56382 17.4741 9.19214 15.8671 9.03085 14.0403C8.9887 13.563 8.96763 13.3243 9.11807 13.1622C9.26852 13 9.51853 13 10.0185 13H13.9815C14.4815 13 14.7315 13 14.8819 13.1622C15.0324 13.3243 15.0113 13.563 14.9692 14.0403C14.8079 15.8671 14.4362 17.4741 13.9365 18.6997C13.596 19.5348 13.2161 20.1435 12.8464 20.527C12.4787 20.9085 12.1923 21 12 21C11.8077 21 11.5213 20.9085 11.1536 20.527C10.7839 20.1435 10.404 19.5348 10.0635 18.6997Z" fill="#4E505C"/>
</svg>
