<svg width="16" height="16" viewBox="0 0 16 16" fill="none" xmlns="http://www.w3.org/2000/svg">
<path opacity="0.4" d="M2.68286 3.12467C1.75559 2.94067 0.833365 3.62786 0.833252 4.61361V11.292C0.833332 11.9787 1.30517 12.5898 1.98885 12.7405L2.42375 12.8323C4.54221 13.2591 5.85535 13.2123 7.00839 13.0413C8.24505 12.8579 9.13098 12.5726 10.6666 12.5726C11.6421 12.5726 12.5249 12.6799 13.1217 12.7927C13.6063 12.8555 14.0909 12.7073 14.4602 12.4385C14.8557 12.1505 15.1665 11.6864 15.1666 11.1214V4.61751C15.1665 4.09 14.879 3.56306 14.3463 3.34537C13.6722 3.13649 12.3718 2.83301 10.6666 2.83301C9.08812 2.83301 8.03958 3.12761 6.98299 3.29395C5.99346 3.44972 4.87878 3.52192 3.05656 3.19564L2.68286 3.12467Z" fill="#1DBF73"/>
<path d="M10 8C10 9.1046 9.1046 10 8 10C6.8954 10 6 9.1046 6 8C6 6.8954 6.8954 6 8 6C9.1046 6 10 6.8954 10 8Z" fill="#1DBF73"/>
<path d="M11.6667 7.66532V7.65885C11.6667 7.29065 11.9652 6.99219 12.3334 6.99219C12.7016 6.99219 13 7.29065 13 7.65885V7.66532C13 8.03352 12.7016 8.33199 12.3334 8.33199C11.9652 8.33199 11.6667 8.03352 11.6667 7.66532Z" fill="#1DBF73"/>
<path d="M3 8.33231V8.32585C3 7.95765 3.29848 7.65918 3.66667 7.65918C4.03485 7.65918 4.33333 7.95765 4.33333 8.32585V8.33231C4.33333 8.70051 4.03485 8.99898 3.66667 8.99898C3.29848 8.99898 3 8.70051 3 8.33231Z" fill="#1DBF73"/>
</svg>
