<svg width="16" height="16" viewBox="0 0 16 16" fill="none" xmlns="http://www.w3.org/2000/svg">
<path d="M1.66671 3.9987H3.66671C3.8508 3.9987 4.00004 3.84946 4.00004 3.66536V1.66536C4.00004 1.48127 3.8508 1.33203 3.66671 1.33203H1.66671C1.48261 1.33203 1.33337 1.48127 1.33337 1.66536V3.66536C1.33337 3.84946 1.48261 3.9987 1.66671 3.9987Z" fill="#4E505C"/>
<path d="M12.3333 3.9987H14.3333C14.5174 3.9987 14.6667 3.84946 14.6667 3.66536V1.66536C14.6667 1.48127 14.5174 1.33203 14.3333 1.33203H12.3333C12.1493 1.33203 12 1.48127 12 1.66536V3.66536C12 3.84946 12.1493 3.9987 12.3333 3.9987Z" fill="#4E505C"/>
<path d="M6.99996 3.9987H8.99996C9.18403 3.9987 9.33329 3.84946 9.33329 3.66536V1.66536C9.33329 1.48127 9.18403 1.33203 8.99996 1.33203H6.99996C6.81589 1.33203 6.66663 1.48127 6.66663 1.66536V3.66536C6.66663 3.84946 6.81589 3.9987 6.99996 3.9987Z" fill="#4E505C"/>
<path d="M1.66665 14.6667H3.66665C3.85074 14.6667 3.99998 14.5174 3.99998 14.3333V12.3333C3.99998 12.1493 3.85074 12 3.66665 12H1.66665C1.48255 12 1.33331 12.1493 1.33331 12.3333V14.3333C1.33331 14.5174 1.48255 14.6667 1.66665 14.6667Z" fill="#4E505C"/>
<path d="M1.66671 9.33464H3.66671C3.8508 9.33464 4.00004 9.18537 4.00004 9.0013V7.0013C4.00004 6.81724 3.8508 6.66797 3.66671 6.66797H1.66671C1.48261 6.66797 1.33337 6.81724 1.33337 7.0013V9.0013C1.33337 9.18537 1.48261 9.33464 1.66671 9.33464Z" fill="#4E505C"/>
<path d="M12.3333 14.6667H14.3333C14.5174 14.6667 14.6667 14.5174 14.6667 14.3333V12.3333C14.6667 12.1493 14.5174 12 14.3333 12H12.3333C12.1493 12 12 12.1493 12 12.3333V14.3333C12 14.5174 12.1493 14.6667 12.3333 14.6667Z" fill="#4E505C"/>
<path d="M12.3333 9.33464H14.3333C14.5174 9.33464 14.6667 9.18537 14.6667 9.0013V7.0013C14.6667 6.81724 14.5174 6.66797 14.3333 6.66797H12.3333C12.1493 6.66797 12 6.81724 12 7.0013V9.0013C12 9.18537 12.1493 9.33464 12.3333 9.33464Z" fill="#4E505C"/>
<path d="M7.00002 14.6667H9.00002C9.18409 14.6667 9.33335 14.5174 9.33335 14.3333V12.3333C9.33335 12.1493 9.18409 12 9.00002 12H7.00002C6.81595 12 6.66669 12.1493 6.66669 12.3333V14.3333C6.66669 14.5174 6.81595 14.6667 7.00002 14.6667Z" fill="#4E505C"/>
<path d="M6.99996 9.33464H8.99996C9.18403 9.33464 9.33329 9.18537 9.33329 9.0013V7.0013C9.33329 6.81724 9.18403 6.66797 8.99996 6.66797H6.99996C6.81589 6.66797 6.66663 6.81724 6.66663 7.0013V9.0013C6.66663 9.18537 6.81589 9.33464 6.99996 9.33464Z" fill="#4E505C"/>
</svg>
