<svg width="24" height="24" viewBox="0 0 24 24" fill="none" xmlns="http://www.w3.org/2000/svg">
<path d="M11.9961 13.75C12.9626 13.75 13.7461 12.9665 13.7461 12C13.7461 11.0335 12.9626 10.25 11.9961 10.25C11.0296 10.25 10.2461 11.0335 10.2461 12C10.2461 12.9665 11.0296 13.75 11.9961 13.75Z" fill="white"/>
<path d="M11.9961 7.75C12.9626 7.75 13.7461 6.9665 13.7461 6C13.7461 5.0335 12.9626 4.25 11.9961 4.25C11.0296 4.25 10.2461 5.0335 10.2461 6C10.2461 6.9665 11.0296 7.75 11.9961 7.75Z" fill="white"/>
<path d="M11.9961 19.75C12.9626 19.75 13.7461 18.9665 13.7461 18C13.7461 17.0335 12.9626 16.25 11.9961 16.25C11.0296 16.25 10.2461 17.0335 10.2461 18C10.2461 18.9665 11.0296 19.75 11.9961 19.75Z" fill="white"/>
</svg>
