<svg width="20" height="20" viewBox="0 0 20 20" fill="none" xmlns="http://www.w3.org/2000/svg">
<path d="M12.9166 8.75016C12.9166 7.13933 11.6108 5.8335 9.99992 5.8335C8.38909 5.8335 7.08325 7.13933 7.08325 8.75016C7.08325 10.361 8.38909 11.6668 9.99992 11.6668C11.6108 11.6668 12.9166 10.361 12.9166 8.75016Z" stroke="#A4A7AE" stroke-width="1.5" stroke-linecap="round" stroke-linejoin="round"/>
<path d="M18.3334 9.99984C18.3334 5.39746 14.6024 1.6665 10.0001 1.6665C5.39771 1.6665 1.66675 5.39746 1.66675 9.99984C1.66675 14.6022 5.39771 18.3332 10.0001 18.3332C14.6024 18.3332 18.3334 14.6022 18.3334 9.99984Z" stroke="#A4A7AE" stroke-width="1.5" stroke-linecap="round" stroke-linejoin="round"/>
<path d="M15 16.6665C15 13.9051 12.7614 11.6665 10 11.6665C7.23857 11.6665 5 13.9051 5 16.6665" stroke="#A4A7AE" stroke-width="1.5" stroke-linecap="round" stroke-linejoin="round"/>
</svg>
