<svg width="56" height="56" viewBox="0 0 56 56" fill="none" xmlns="http://www.w3.org/2000/svg">
<path d="M33.7239 30.0879C33.3704 31.5502 31.7 32.5836 28.3591 34.6505C25.1293 36.6483 23.5147 37.6474 22.2132 37.2458C21.6752 37.0797 21.185 36.7645 20.7896 36.33C19.8334 35.2795 19.8334 33.2418 19.8334 29.1667C19.8334 25.0915 19.8334 23.0537 20.7896 22.0032C21.185 21.5689 21.6752 21.2536 22.2132 21.0876C23.5147 20.686 25.1293 21.685 28.3591 23.6829C31.7 25.7497 33.3704 26.7832 33.7239 28.2455C33.8698 28.8491 33.8698 29.4842 33.7239 30.0879Z" stroke="white" stroke-width="3.5" stroke-linejoin="round"/>
<path d="M48.9946 25.6667C49 26.7636 49 27.9284 49 29.1667C49 39.616 49 44.8408 45.7538 48.0872C42.5075 51.3333 37.2827 51.3333 26.8333 51.3333C16.3838 51.3333 11.1591 51.3333 7.91285 48.0872C4.66663 44.8408 4.66663 39.616 4.66663 29.1667C4.66663 18.7172 4.66663 13.4925 7.91285 10.2462C11.1591 7 16.3838 7 26.8333 7C28.0716 7 29.2364 7 30.3333 7.00539" stroke="white" stroke-width="3.5" stroke-linecap="round"/>
<path d="M43.1667 4.66797L43.7684 6.29437C44.5576 8.42702 44.9521 9.49335 45.7301 10.2712C46.508 11.0491 47.5743 11.4437 49.707 12.2328L51.3333 12.8346L49.707 13.4364C47.5743 14.2256 46.508 14.6202 45.7301 15.3981C44.9521 16.1759 44.5576 17.2423 43.7684 19.3749L43.1667 21.0013L42.5649 19.3749C41.7758 17.2423 41.3812 16.1759 40.6033 15.3981C39.8253 14.6202 38.759 14.2256 36.6263 13.4364L35 12.8346L36.6263 12.2328C38.759 11.4437 39.8253 11.0491 40.6033 10.2712C41.3812 9.49335 41.7758 8.42702 42.5649 6.29437L43.1667 4.66797Z" stroke="white" stroke-width="3.5" stroke-linejoin="round"/>
</svg>
