<svg width="20" height="20" viewBox="0 0 20 20" fill="none" xmlns="http://www.w3.org/2000/svg">
<path fill-rule="evenodd" clip-rule="evenodd" d="M9.16675 1.66602C5.02461 1.66602 1.66675 5.02388 1.66675 9.16602C1.66675 13.3082 5.02461 16.666 9.16675 16.666C10.9376 16.666 12.5651 16.0523 13.8482 15.0259L16.9108 18.0886C17.2362 18.414 17.7639 18.414 18.0893 18.0886C18.4147 17.7632 18.4147 17.2355 18.0893 16.9101L15.0267 13.8474C16.053 12.5643 16.6667 10.9368 16.6667 9.16602C16.6667 5.02388 13.3089 1.66602 9.16675 1.66602ZM3.33341 9.16602C3.33341 5.94436 5.94509 3.33268 9.16675 3.33268C12.3884 3.33268 15.0001 5.94436 15.0001 9.16602C15.0001 12.3877 12.3884 14.9993 9.16675 14.9993C5.94509 14.9993 3.33341 12.3877 3.33341 9.16602Z" fill="#4E505C"/>
</svg>
