<svg width="20" height="20" viewBox="0 0 20 20" fill="none" xmlns="http://www.w3.org/2000/svg">
<path d="M9.99997 1.45801C10.2591 1.45801 10.4915 1.61802 10.5839 1.8602L12.5489 7.00996L17.9471 7.27395C18.2015 7.28639 18.4228 7.45187 18.5067 7.69227C18.5906 7.93267 18.5203 8.19994 18.3289 8.36792L14.2206 11.9743L15.7305 17.7585C15.7965 18.0109 15.6985 18.2778 15.485 18.4278C15.2715 18.5778 14.9873 18.5793 14.7721 18.4316L9.99997 15.1559L5.22776 18.4316C5.01262 18.5793 4.72837 18.5778 4.51484 18.4278C4.3013 18.2778 4.20341 18.0109 4.26932 17.7585L5.77927 11.9743L1.67097 8.36792C1.47961 8.19994 1.40928 7.93267 1.49318 7.69227C1.57707 7.45187 1.79842 7.28639 2.05275 7.27395L7.45102 7.00996L9.41597 1.8602C9.50838 1.61802 9.74072 1.45801 9.99997 1.45801Z" fill="#FEBC2F"/>
</svg>
