<svg width="20" height="20" viewBox="0 0 20 20" fill="none" xmlns="http://www.w3.org/2000/svg">
<path d="M2.5 9.15549V12.911C2.5 15.2714 2.5 16.4517 3.23223 17.185C3.96447 17.9183 5.14297 17.9183 7.5 17.9183H12.5C14.857 17.9183 16.0355 17.9183 16.7678 17.185C17.5 16.4517 17.5 15.2714 17.5 12.911V9.15549" stroke="#A4A7AE" stroke-width="1.25"/>
<path d="M14.8298 2.08375L5.12494 2.10796C3.67646 2.03344 3.30508 3.14884 3.30508 3.6941C3.30508 4.18175 3.2422 4.89268 2.35445 6.22886C1.46669 7.56505 1.5334 7.96199 2.034 8.88701C2.44948 9.65476 3.50625 9.9546 4.05726 10.0051C5.80744 10.0448 6.65896 8.53318 6.65896 7.4708C7.52717 10.1403 9.99636 10.1403 11.0966 9.83501C12.1989 9.52918 13.1432 8.43451 13.3659 7.4708C13.4959 8.66843 13.8902 9.36735 15.0553 9.84751C16.2621 10.3449 17.3 9.58468 17.8207 9.09735C18.3414 8.61001 18.6756 7.52805 17.7474 6.3389C17.1072 5.51882 16.8404 4.74625 16.7528 3.94553C16.702 3.48157 16.6574 2.98302 16.331 2.66576C15.854 2.20212 15.1697 2.06145 14.8298 2.08375Z" stroke="#A4A7AE" stroke-width="1.25" stroke-linecap="round" stroke-linejoin="round"/>
</svg>
