<svg width="46" height="46" viewBox="0 0 46 46" fill="none" xmlns="http://www.w3.org/2000/svg">
<rect width="45.3939" height="45.3939" rx="22.6969" fill="#03FF93"/>
<path d="M30.0262 14.6974C29.5732 14.591 28.683 14.5914 27.7651 15.6863L26.6144 17.0713C25.7032 14.0957 24.0834 13.2667 20.9152 14.1156L15.1196 15.6686C11.8162 16.5537 10.8757 18.1826 11.7609 21.4861L13.8314 29.2135C14.4267 31.4351 16.2682 33.4781 19.649 32.5723L25.4445 31.0193C28.6128 30.1704 29.601 28.6426 28.9023 25.6101L30.5914 26.2342C31.3042 26.4987 31.862 26.4942 32.2774 26.3829C32.6347 26.2871 32.8864 26.1058 33.044 25.9601C33.3857 25.6511 33.9047 24.9219 33.5346 23.5407L31.6607 16.5474C31.2906 15.1661 30.4766 14.7941 30.0262 14.6974ZM21.5705 22.3569C20.5756 22.6234 19.5372 22.0321 19.268 21.0275C18.9988 20.0229 19.6024 18.9916 20.5973 18.725C21.5923 18.4584 22.6307 19.0498 22.8999 20.0543C23.169 21.0589 22.5654 22.0903 21.5705 22.3569Z" fill="#1A1B1F"/>
</svg>
