<svg width="78" height="20" viewBox="0 0 78 20" fill="none" xmlns="http://www.w3.org/2000/svg">
<path d="M64.1472 10.2659C64.1472 8.93255 64.4203 7.75183 64.9665 6.72371C65.5287 5.6956 66.2838 4.90042 67.2315 4.33817C68.1954 3.75986 69.2556 3.4707 70.4123 3.4707C71.4564 3.4707 72.3641 3.67954 73.1352 4.09721C73.9223 4.49881 74.5488 5.00484 75.0147 5.61528L75.0147 3.68757L77.7857 3.68757L77.7857 16.9647L75.0147 16.9647L75.0147 14.9888C74.5488 15.6153 73.9143 16.1374 73.1111 16.555C72.3078 16.9727 71.3922 17.1815 70.3641 17.1815C69.2235 17.1815 68.1793 16.8924 67.2315 16.3141C66.2838 15.7197 65.5287 14.9004 64.9665 13.8562C64.4203 12.796 64.1472 11.5992 64.1472 10.2659ZM75.0147 10.3141C75.0147 9.39841 74.8219 8.60323 74.4364 7.92853C74.0669 7.25383 73.5769 6.73978 72.9665 6.38636C72.356 6.03295 71.6974 5.85624 70.9906 5.85624C70.2838 5.85624 69.6251 6.03295 69.0147 6.38636C68.4042 6.72371 67.9062 7.22974 67.5207 7.90444C67.1512 8.56307 66.9665 9.35022 66.9665 10.2659C66.9665 11.1815 67.1512 11.9848 67.5207 12.6755C67.9062 13.3663 68.4042 13.8964 69.0147 14.2659C69.6412 14.6193 70.2998 14.796 70.9906 14.796C71.6974 14.796 72.356 14.6193 72.9665 14.2659C73.5769 13.9125 74.0669 13.3984 74.4364 12.7237C74.8219 12.033 75.0147 11.2297 75.0147 10.3141Z" fill="white"/>
<path d="M56.1131 3.4707C57.1573 3.4707 58.089 3.68757 58.9083 4.1213C59.7436 4.55504 60.3942 5.19761 60.8601 6.04902C61.3259 6.90042 61.5589 7.92853 61.5589 9.13335L61.5589 16.9647L58.836 16.9647L58.836 9.54299C58.836 8.35424 58.5388 7.4466 57.9444 6.8201C57.35 6.17753 56.5388 5.85624 55.5107 5.85624C54.4826 5.85624 53.6633 6.17753 53.0529 6.8201C52.4585 7.4466 52.1613 8.35424 52.1613 9.54299L52.1613 16.9647L49.4143 16.9647L49.4143 3.68757L52.1613 3.68757L52.1613 5.20564C52.6111 4.65946 53.1814 4.23375 53.8721 3.92853C54.579 3.62331 55.3259 3.4707 56.1131 3.4707Z" fill="white"/>
<path d="M40.6629 14.5068L44.4219 3.6875L47.3376 3.6875L42.2773 16.9646L39.0002 16.9646L33.9641 3.6875L36.9039 3.6875L40.6629 14.5068Z" fill="white"/>
<path d="M31.9063 3.6875L31.9063 16.9646L29.1593 16.9646L29.1593 15.3983C28.7256 15.9445 28.1553 16.3783 27.4485 16.6995C26.7577 17.0048 26.0187 17.1574 25.2316 17.1574C24.1874 17.1574 23.2477 16.9405 22.4123 16.5068C21.593 16.073 20.9424 15.4305 20.4605 14.5791C19.9946 13.7277 19.7617 12.6995 19.7617 11.4947L19.7617 3.6875L22.4846 3.6875L22.4846 11.0851C22.4846 12.2738 22.7818 13.1895 23.3762 13.8321C23.9705 14.4586 24.7818 14.7718 25.8099 14.7718C26.838 14.7718 27.6493 14.4586 28.2436 13.8321C28.8541 13.1895 29.1593 12.2738 29.1593 11.0851L29.1593 3.6875L31.9063 3.6875Z" fill="white"/>
<path d="M13.8795 20L10.9397 16.8193C10.2168 17.0281 9.42167 17.1325 8.5542 17.1325C6.99597 17.1325 5.55822 16.7711 4.24096 16.0482C2.93975 15.3092 1.90361 14.2892 1.13253 12.988C0.377509 11.6707 6.92971e-08 10.1928 5.81571e-08 8.55422C4.70172e-08 6.91566 0.377509 5.44578 1.13253 4.14458C1.90361 2.84337 2.93975 1.83133 4.24096 1.10843C5.55822 0.369478 6.99597 -4.75632e-08 8.5542 -5.8157e-08C10.1285 -6.88601e-08 11.5662 0.369478 12.8674 1.10843C14.1847 1.83133 15.2209 2.84337 15.9759 4.14458C16.7309 5.44578 17.1084 6.91566 17.1084 8.55422C17.1084 10.0964 16.7711 11.494 16.0964 12.747C15.4377 13.9839 14.5221 14.9799 13.3494 15.7349L17.3735 20L13.8795 20ZM2.81927 8.55422C2.81927 9.79116 3.06024 10.8835 3.54216 11.8313C4.04015 12.7631 4.72288 13.4859 5.59035 14C6.45782 14.498 7.44577 14.747 8.5542 14.747C9.66263 14.747 10.6506 14.498 11.5181 14C12.3855 13.4859 13.0602 12.7631 13.5421 11.8313C14.0401 10.8835 14.2891 9.79116 14.2891 8.55422C14.2891 7.31727 14.0401 6.23293 13.5421 5.3012C13.0602 4.36948 12.3855 3.65462 11.5181 3.15663C10.6506 2.65864 9.66263 2.40964 8.5542 2.40964C7.44577 2.40964 6.45782 2.65864 5.59035 3.15663C4.72288 3.65462 4.04015 4.36948 3.54216 5.3012C3.06024 6.23293 2.81927 7.31727 2.81927 8.55422Z" fill="white"/>
</svg>
