<svg width="20" height="20" viewBox="0 0 20 20" fill="none" xmlns="http://www.w3.org/2000/svg">
<path d="M14.7502 17.7792C13.7735 17.9165 12.4998 17.9165 10.7919 17.9165H9.20853C5.84974 17.9165 4.17036 17.9165 3.12693 16.873C2.0835 15.8296 2.0835 14.1502 2.0835 10.7915V9.20816C2.0835 5.84937 2.0835 4.16999 3.12693 3.12655C4.17036 2.08313 5.84974 2.08313 9.20853 2.08313H10.7919C14.1506 2.08313 15.8299 2.08313 16.8734 3.12655C17.9169 4.16999 17.9169 5.84937 17.9169 9.20816V10.7915C17.9169 11.7983 17.9169 12.6542 17.8887 13.3873C17.8662 13.9749 17.8549 14.2687 17.6324 14.3784C17.4099 14.4882 17.1611 14.3122 16.6633 13.96L15.5419 13.1665" stroke="#A4A7AE" stroke-width="1.5" stroke-linecap="round" stroke-linejoin="round"/>
<path d="M12.4545 10.329C12.3072 10.8513 11.6112 11.2203 10.2192 11.9585C8.87342 12.672 8.20058 13.0288 7.65835 12.8854C7.43417 12.8261 7.22991 12.7135 7.06518 12.5583C6.66675 12.1832 6.66675 11.4554 6.66675 10C6.66675 8.54459 6.66675 7.81683 7.06518 7.44163C7.22991 7.28652 7.43417 7.17391 7.65835 7.11462C8.20058 6.97121 8.87342 7.32798 10.2192 8.04153C11.6112 8.77968 12.3072 9.14876 12.4545 9.67101C12.5152 9.88659 12.5152 10.1134 12.4545 10.329Z" stroke="#A4A7AE" stroke-width="1.5" stroke-linejoin="round"/>
</svg>
