<svg width="16" height="16" viewBox="0 0 16 16" fill="none" xmlns="http://www.w3.org/2000/svg">
<path d="M11.8001 14.2249C11.0188 14.3347 9.99977 14.3347 8.63344 14.3347H7.36677C4.67974 14.3347 3.33624 14.3347 2.50149 13.4999C1.66675 12.6651 1.66675 11.3217 1.66675 8.63466V7.368C1.66675 4.68096 1.66675 3.33746 2.50149 2.50271C3.33624 1.66797 4.67974 1.66797 7.36677 1.66797H8.63344C11.3204 1.66797 12.6639 1.66797 13.4986 2.50271C14.3334 3.33746 14.3334 4.68096 14.3334 7.368V8.63466C14.3334 9.44013 14.3334 10.1249 14.3109 10.7113C14.2929 11.1814 14.2839 11.4164 14.1059 11.5042C13.9279 11.5921 13.7288 11.4512 13.3306 11.1695L12.4334 10.5347" stroke="#FAFAFA" stroke-linecap="round" stroke-linejoin="round"/>
<path d="M9.96357 8.2645C9.84577 8.6823 9.28891 8.97757 8.17531 9.5681C7.09871 10.1389 6.56044 10.4244 6.12665 10.3096C5.94731 10.2622 5.78391 10.1721 5.65212 10.048C5.33337 9.74783 5.33337 9.16563 5.33337 8.0013C5.33337 6.83697 5.33337 6.25475 5.65212 5.9546C5.78391 5.83051 5.94731 5.74042 6.12665 5.69299C6.56044 5.57826 7.09871 5.86368 8.17531 6.43452C9.28891 7.02503 9.84577 7.3203 9.96357 7.7381C10.0122 7.91057 10.0122 8.09203 9.96357 8.2645Z" stroke="#FAFAFA" stroke-linejoin="round"/>
</svg>
