<svg width="24" height="24" viewBox="0 0 24 24" fill="none" xmlns="http://www.w3.org/2000/svg">
<g clip-path="url(#clip0_2_37729)">
<path d="M12.0002 0.371094C5.57774 0.371094 0.371338 5.57703 0.371338 11.9999C0.371338 18.4219 5.57774 23.6282 12.0002 23.6282C18.4223 23.6282 23.6287 18.4219 23.6287 11.9999C23.6287 5.57698 18.4223 0.371094 12.0002 0.371094Z" fill="#D61E1E"/>
<path d="M12.0002 2.19922C6.58738 2.19922 2.19946 6.58672 2.19946 11.9999C2.19946 17.4123 6.58738 21.8002 12.0002 21.8002C17.4127 21.8002 21.8006 17.4123 21.8006 11.9999C21.8006 6.58672 17.4127 2.19922 12.0002 2.19922Z" fill="#F4EDED"/>
<path d="M15.7105 16.5247L14.1313 6.13295C14.0624 5.67991 13.6394 5.36837 13.1863 5.43728L6.34954 6.47626C5.89649 6.54508 5.58496 6.96822 5.65382 7.42136L7.23299 17.813C7.3019 18.2661 7.72499 18.5776 8.17809 18.5087L15.0147 17.4698C15.4679 17.4009 15.7793 16.9778 15.7105 16.5247Z" fill="#5B5147"/>
<path d="M7.47772 7.87883C7.43989 7.8815 7.40933 7.87498 7.38608 7.85952C7.35519 7.83884 7.3114 7.78419 7.25483 7.69545L6.66022 6.75781L6.64301 6.76044L6.35337 7.80467C6.326 7.90437 6.30045 7.97127 6.27664 8.00544C6.25287 8.03956 6.21954 8.06328 6.17651 8.07659L6.18158 8.11002L6.58915 8.048L6.584 8.01467C6.51945 8.01945 6.47825 8.01842 6.46048 8.01125C6.43034 7.9992 6.41267 7.97595 6.40737 7.94159C6.40344 7.91577 6.4069 7.88164 6.41773 7.83931L6.45115 7.71223L6.88395 7.64642L6.97226 7.7892C6.99514 7.82642 7.00756 7.84766 7.00962 7.85286C7.01492 7.86373 7.01844 7.87461 7.02012 7.88548C7.02294 7.90348 7.01839 7.91834 7.00658 7.93006C6.98933 7.94623 6.95689 7.95795 6.90931 7.96527L6.88489 7.96892L6.88995 8.00239L7.48269 7.9123L7.47772 7.87883ZM6.47272 7.64052L6.59656 7.19L6.84322 7.58422L6.47272 7.64052Z" fill="#F4EDED"/>
<path d="M7.3395 8.39383C7.3395 8.39383 7.05717 8.2105 6.96136 8.62572C6.74667 8.25771 6.53142 8.51669 6.53142 8.51669C6.24811 8.84261 7.03631 9.33105 7.07128 9.35242L7.07142 9.35341C7.07142 9.35341 7.07156 9.35322 7.07194 9.35285C7.07241 9.35308 7.07264 9.35322 7.07264 9.35322L7.07245 9.35214C7.09941 9.32149 7.70691 8.62089 7.3395 8.39383Z" fill="#F4EDED"/>
<path d="M12.3103 9.68106C12.3103 9.68106 10.9602 8.80463 10.5024 10.7892C9.47574 9.03024 8.44693 10.2682 8.44693 10.2682C7.09276 11.8262 10.8605 14.161 11.0275 14.2633L11.0282 14.2681C11.0282 14.2681 11.0291 14.2671 11.0306 14.2652C11.0327 14.2665 11.0339 14.2672 11.0339 14.2672L11.0332 14.2624C11.1621 14.1152 14.0661 10.7665 12.3103 9.68106Z" fill="#F4EDED"/>
<path d="M17.7439 7.03738L11.0721 5.21887C10.63 5.09835 10.1739 5.35912 10.0533 5.80124L7.28918 15.9424C7.16867 16.3845 7.42938 16.8407 7.87156 16.9612L14.5433 18.7797C14.9856 18.9002 15.4416 18.6395 15.5622 18.1973L18.3262 8.05621C18.4467 7.61408 18.1862 7.15794 17.7439 7.03738Z" fill="#F4EDED"/>
<path d="M17.7439 7.03738L11.0721 5.21887C10.63 5.09835 10.1739 5.35912 10.0533 5.80124L7.28918 15.9424C7.16867 16.3845 7.42938 16.8407 7.87156 16.9612L14.5433 18.7797C14.9856 18.9002 15.4416 18.6395 15.5622 18.1973L18.3262 8.05621C18.4467 7.61408 18.1862 7.15794 17.7439 7.03738Z" stroke="black" stroke-width="0.5" stroke-miterlimit="10"/>
<path d="M11.4593 6.90341C11.4394 6.87209 11.4216 6.80436 11.4056 6.70025L11.2418 5.60225L11.225 5.59766L10.5373 6.43512C10.4719 6.51519 10.4214 6.566 10.3859 6.58756C10.3504 6.60912 10.3102 6.61733 10.2656 6.61208L10.2567 6.6447L10.6544 6.75308L10.6633 6.72045C10.6022 6.6988 10.5651 6.68108 10.5517 6.66739C10.529 6.64409 10.5222 6.61578 10.5313 6.58227C10.5382 6.55695 10.5551 6.52723 10.5822 6.49283L10.6642 6.39022L11.0866 6.50534L11.1094 6.6717C11.1153 6.71497 11.1181 6.73944 11.1179 6.74502C11.1184 6.7572 11.1172 6.7685 11.1142 6.77914C11.1095 6.79681 11.0993 6.80853 11.0839 6.81439C11.0615 6.82222 11.0271 6.81978 10.9807 6.80708L10.9568 6.80061L10.948 6.83319L11.5264 6.99083L11.5353 6.95825C11.4997 6.94527 11.4743 6.92708 11.4593 6.90341ZM10.7129 6.33331L11.0085 5.97153L11.0744 6.43184L10.7129 6.33331Z" fill="#5B5147"/>
<path d="M10.9815 7.60574C10.9229 7.5898 10.8636 7.59842 10.814 7.62495L10.8057 7.59622C10.8808 7.57555 10.9434 7.51714 10.9654 7.43647C10.9985 7.31502 10.9269 7.18967 10.8053 7.15653C10.6839 7.12339 10.5585 7.19502 10.5254 7.31656C10.5033 7.39761 10.528 7.4802 10.5828 7.53617L10.563 7.55483C10.5337 7.50781 10.4875 7.47111 10.4297 7.45536C10.3082 7.42222 10.1828 7.49394 10.1497 7.61539C10.1166 7.73698 10.1882 7.86228 10.3097 7.89538C10.4094 7.92256 10.5117 7.87906 10.5634 7.79553L10.6048 7.80678C10.5326 8.05311 10.3267 8.14213 10.3267 8.14213L10.719 8.24909C10.719 8.24909 10.5868 8.06792 10.6495 7.81911L10.6936 7.83106C10.6957 7.92931 10.7619 8.01866 10.8615 8.04575C10.983 8.07894 11.1083 8.00731 11.1415 7.88577C11.1747 7.76422 11.103 7.63888 10.9815 7.60574Z" fill="#5B5147"/>
<path d="M14.9835 17.1341L14.9747 17.1667C15.0357 17.1885 15.0728 17.2061 15.0862 17.2199C15.1088 17.2431 15.1157 17.2716 15.1065 17.305C15.0996 17.3303 15.0826 17.3602 15.0556 17.3944L14.9737 17.497L14.5513 17.382L14.5284 17.2157C14.5225 17.1723 14.5197 17.1479 14.52 17.1423C14.5194 17.1302 14.5207 17.1189 14.5235 17.1083C14.5284 17.0906 14.5385 17.0789 14.554 17.073C14.5764 17.0652 14.6108 17.0675 14.6572 17.0802L14.681 17.0867L14.6899 17.0541L14.1114 16.8965L14.1025 16.9291C14.1382 16.942 14.1635 16.9602 14.1785 16.984C14.1984 17.0153 14.2163 17.0829 14.2321 17.187L14.396 18.2851L14.4128 18.2897L15.1005 17.4521C15.1659 17.372 15.2163 17.3213 15.252 17.2997C15.2875 17.2781 15.3276 17.27 15.3722 17.2752L15.3811 17.2426L14.9835 17.1341ZM14.6293 17.9157L14.5635 17.4554L14.925 17.554L14.6293 17.9157Z" fill="#5B5147"/>
<path d="M15.3298 16.0139C15.2301 15.9867 15.1279 16.0301 15.0761 16.1137L15.0348 16.1025C15.1069 15.8561 15.3129 15.7671 15.3129 15.7671L14.9206 15.6602C14.9206 15.6602 15.0528 15.8413 14.99 16.0902L14.946 16.0783C14.9438 15.9799 14.8777 15.8906 14.7781 15.8635C14.6566 15.8304 14.5312 15.902 14.4981 16.0234C14.4649 16.1449 14.5367 16.2702 14.6582 16.3034C14.7167 16.3194 14.7761 16.3108 14.8256 16.2843L14.834 16.3129C14.7589 16.3337 14.6962 16.3921 14.6742 16.4727C14.6411 16.5943 14.7127 16.7195 14.8342 16.7527C14.9558 16.7859 15.0811 16.7142 15.1142 16.5926C15.1363 16.5116 15.1117 16.4291 15.0567 16.373L15.0765 16.3543C15.1059 16.4014 15.1522 16.4381 15.2099 16.4538C15.3315 16.4869 15.4568 16.4153 15.49 16.2937C15.523 16.1723 15.4513 16.047 15.3298 16.0139Z" fill="#5B5147"/>
<path d="M14.3169 11.661C14.0369 11.5846 13.7533 11.6256 13.5161 11.7526L13.4762 11.6152C13.8353 11.5163 14.1348 11.2371 14.2398 10.8516C14.3982 10.2707 14.0557 9.67159 13.4749 9.51325C12.8941 9.35495 12.2949 9.69742 12.1366 10.2782C12.0838 10.472 12.0869 10.6675 12.136 10.8482C12.1851 11.0287 12.28 11.1942 12.4111 11.3279L12.3162 11.4174C12.176 11.1924 11.955 11.0171 11.679 10.9419C11.0982 10.7837 10.499 11.126 10.3406 11.7069C10.1823 12.2878 10.5249 12.887 11.1057 13.0452C11.5823 13.1752 12.0709 12.9674 12.3184 12.5679L12.5158 12.6217C12.1708 13.7993 11.1871 14.2246 11.1871 14.2246L13.062 14.7356C13.062 14.7356 12.4301 13.8698 12.7304 12.6801L12.9407 12.7374C12.9514 13.2073 13.2668 13.6343 13.7436 13.7642C14.3243 13.9225 14.9235 13.5801 15.0818 12.9992C15.2401 12.4184 14.8976 11.8192 14.3169 11.661Z" fill="#5B5147"/>
<path d="M4.39552 3.20117C3.96961 3.56961 3.57071 3.96852 3.20227 4.39442L19.6045 20.7966C20.0304 20.4282 20.4293 20.0293 20.7977 19.6034L4.39552 3.20117Z" fill="#D61E1E"/>
</g>
<defs>
<clipPath id="clip0_2_37729">
<rect width="24" height="24" fill="white"/>
</clipPath>
</defs>
</svg>
