<svg width="16" height="16" viewBox="0 0 16 16" fill="none" xmlns="http://www.w3.org/2000/svg">
<g clip-path="url(#clip0_2_37786)">
<path d="M15.783 5.85379C15.4326 5.67448 15.082 6.2069 15.082 6.2069L15.0602 6.20414C15.1052 5.37808 15.1052 4.55019 15.0602 3.72414C14.8966 0.176552 10.8119 0 10.8119 0H10.1551C9.40308 0.0577512 8.66846 0.255439 7.98903 0.582897C7.31556 0.261919 6.58862 0.0680485 5.84475 0.0110345H5.1882C5.1882 0.0110345 1.10351 0.187586 0.939925 3.73517C0.894967 4.56123 0.894967 5.38912 0.939925 6.21517L0.918132 6.21793C0.918132 6.21793 0.567511 5.68552 0.217166 5.86483C-0.130144 6.03862 0.0408902 7.63586 0.0408902 7.63586C0.0408902 7.63586 0.214683 8.86621 1.24917 9.40138C1.20475 10.4276 1.12779 11.36 2.24779 12.4248C2.38077 12.5504 2.50693 12.683 2.62572 12.8221V15.4483C2.62571 15.7519 2.87105 15.9985 3.17468 16H7.85855C7.91269 15.9989 7.96636 15.9896 8.01772 15.9724C8.05827 15.9823 8.09983 15.9875 8.14158 15.9879H12.8254C13.1291 15.9863 13.3744 15.7398 13.3744 15.4361V12.811C13.4932 12.672 13.6194 12.5394 13.7523 12.4138C14.8723 11.349 14.7954 10.4166 14.751 9.39034C15.7854 8.85517 15.9592 7.62483 15.9592 7.62483C15.9592 7.62483 16.1303 6.02759 15.783 5.85379Z" fill="#B0D3F0"/>
<path d="M15.0601 6.20414C14.9719 7.57241 14.7344 8.00552 14.7344 8.86621C14.7344 9.04552 14.7401 9.21931 14.7509 9.39034C14.7953 10.4166 14.8723 11.349 13.7523 12.4138C13.6193 12.5394 13.4931 12.672 13.3744 12.811C12.4312 13.9062 12.3035 14.8966 11.1374 14.8966H9.8298C8.6629 14.8966 8.53601 13.9062 7.59256 12.811C7.47377 12.672 7.34761 12.5394 7.21463 12.4138C6.09463 11.349 6.17187 10.4166 6.21601 9.39034C6.22704 9.21931 6.23256 9.04552 6.23256 8.86621C6.23256 8.00552 5.99504 7.57241 5.90676 6.20414C5.86181 5.37808 5.86181 4.55019 5.90676 3.72414C6.06897 0.176552 10.1553 0 10.1553 0H10.8119C10.8119 0 14.8974 0.176552 15.0601 3.72414C15.1051 4.55019 15.1051 5.37808 15.0601 6.20414Z" fill="#E64C3C"/>
<path d="M15.9592 7.62434C15.9592 7.62434 15.7854 8.85469 14.7509 9.38986C14.7402 9.21883 14.7344 9.04503 14.7344 8.86572C14.7344 8.00503 14.9719 7.57193 15.0602 6.20365L15.082 6.20641C15.082 6.20641 15.4326 5.674 15.7829 5.85331C16.1302 6.0271 15.9592 7.62434 15.9592 7.62434Z" fill="#C03A2B"/>
<path d="M13.3743 12.8105V15.4368C13.3743 15.7404 13.129 15.987 12.8254 15.9885H8.14149C7.83786 15.987 7.59253 15.7404 7.59253 15.4368V12.8105C8.53598 13.9057 8.66287 14.8961 9.82977 14.8961H11.1374C12.3034 14.8961 12.4311 13.9057 13.3743 12.8105Z" fill="#C03A2B"/>
<path d="M1.26572 8.87744C1.26572 9.05675 1.25992 9.23055 1.24917 9.40158C0.214683 8.86641 0.0408902 7.63606 0.0408902 7.63606C0.0408902 7.63606 -0.130144 6.03882 0.217166 5.86503C0.567511 5.68572 0.918132 6.21813 0.918132 6.21813L0.939925 6.21537C1.0282 7.58365 1.26572 8.01675 1.26572 8.87744Z" fill="#2C3E50"/>
<path d="M10.0933 6.21586C10.0051 7.58413 9.76756 8.01723 9.76756 8.87792C9.76756 9.05723 9.77307 9.23103 9.78411 9.40206C9.82824 10.4283 9.90549 11.3607 8.78549 12.4255C8.6525 12.5511 8.52634 12.6837 8.40755 12.8228C7.46411 13.9179 7.33721 14.9083 6.17031 14.9083H4.86273C3.69611 14.9083 3.56893 13.9179 2.62576 12.8228C2.50697 12.6837 2.38082 12.5511 2.24783 12.4255C1.12783 11.3607 1.2048 10.4283 1.24921 9.40206C1.25997 9.23103 1.26576 9.05723 1.26576 8.87792C1.26576 8.01723 1.02824 7.58413 0.939968 6.21586C0.895011 5.3898 0.895011 4.56191 0.939968 3.73586C1.10273 0.188271 5.18824 0.0117188 5.18824 0.0117188H5.8448C5.8448 0.0117188 9.93031 0.188271 10.0931 3.73586C10.1381 4.56191 10.1382 5.3898 10.0933 6.21586Z" fill="#35495E"/>
<path d="M10.9923 7.63606C10.9923 7.63606 10.8185 8.86641 9.78401 9.40158C9.77297 9.23055 9.76746 9.05675 9.76746 8.87744C9.76746 8.01675 10.005 7.58365 10.0932 6.21537L10.115 6.21813C10.115 6.21813 10.4654 5.68572 10.816 5.86503C11.1633 6.03882 10.9923 7.63606 10.9923 7.63606Z" fill="#2C3E50"/>
<path d="M8.40753 12.8223V15.4485C8.40753 15.7521 8.16219 15.9987 7.85856 16.0002H3.1747C2.87107 15.9987 2.62573 15.7521 2.62573 15.4485V12.8223C3.5689 13.9174 3.69608 14.9078 4.8627 14.9078H6.17028C7.33801 14.9078 7.46408 13.9174 8.40753 12.8223Z" fill="#2C3E50"/>
<path d="M11.1725 5.5291H12.4139C12.78 5.5302 13.1315 5.38524 13.3904 5.12633C13.6493 4.86742 13.7943 4.51594 13.7932 4.14979C13.7932 3.38802 13.1757 2.77048 12.4139 2.77048C12.6392 2.47279 12.7603 2.1093 12.7587 1.73599C12.7584 0.783905 11.9867 0.0121608 11.0346 0.0118562C11.0106 0.0113436 10.9867 0.0122648 10.9629 0.0146148C10.9472 0.0140745 10.9315 0.0149981 10.916 0.0173735C10.8929 0.0177293 10.8698 0.0195722 10.847 0.0228907C10.8331 0.0233702 10.8192 0.0252182 10.8056 0.028408C10.232 0.104443 9.73526 0.464294 9.48424 0.985649C9.4 1.1572 9.34588 1.34196 9.32424 1.53186C9.06442 1.22215 8.68021 1.0442 8.27596 1.04634C7.51419 1.04634 6.89665 1.66388 6.89665 2.42565C6.89567 2.54206 6.91052 2.65807 6.94079 2.77048H6.89665C6.5305 2.76937 6.17902 2.91434 5.92011 3.17325C5.6612 3.43216 5.51624 3.78363 5.51734 4.14979C5.51734 4.91156 6.13488 5.5291 6.89665 5.5291H11.1725Z" fill="#95A5A5"/>
<path d="M13.7932 4.14857C13.7943 4.51472 13.6493 4.86619 13.3904 5.1251C13.1315 5.38402 12.78 5.52898 12.4139 5.52788H6.89664C6.13487 5.52788 5.51733 4.91034 5.51733 4.14857C5.51818 4.05506 5.52741 3.96181 5.54492 3.86995C5.6803 4.50843 6.24397 4.96511 6.89664 4.96512H12.4139C12.7796 4.96403 13.1303 4.81941 13.3904 4.56236C13.5783 4.37047 13.7083 4.12955 13.7656 3.86719C13.7833 3.95996 13.7925 4.05413 13.7932 4.14857Z" fill="#7F8C8D"/>
<path d="M8.56173 5.13152L9.19621 6.08186C9.24169 6.15005 9.2545 6.23494 9.23115 6.31351C9.2078 6.39208 9.15072 6.45619 9.07539 6.48848L7.8238 7.02476C7.73966 7.06078 7.67886 7.13619 7.6615 7.22606C7.64415 7.31593 7.6725 7.40855 7.73718 7.47331L9.18518 8.92131C9.26433 8.99977 9.38291 9.0229 9.48574 8.97993C9.58857 8.93696 9.65545 8.83634 9.65525 8.7249V7.92683C9.65529 7.81186 9.72663 7.70898 9.83428 7.66862L11.5752 7.01566C11.6485 6.98819 11.7066 6.93093 11.7352 6.85812C11.7637 6.78531 11.7601 6.7038 11.725 6.63386L10.8348 4.85373C10.7881 4.76028 10.6927 4.70123 10.5882 4.70117H8.79153C8.68925 4.70071 8.59511 4.75687 8.54694 4.8471C8.49876 4.93732 8.50446 5.04678 8.56173 5.13152Z" fill="#F0C419"/>
</g>
<defs>
<clipPath id="clip0_2_37786">
<rect width="16" height="16" fill="white"/>
</clipPath>
</defs>
</svg>
