<svg width="24" height="24" viewBox="0 0 24 24" fill="none" xmlns="http://www.w3.org/2000/svg">
<g clip-path="url(#clip0_2_37722)">
<path d="M10.8146 15.8555H6.45004C6.32535 15.8555 6.23488 15.826 6.17863 15.7674C6.12285 15.7084 6.09473 15.6137 6.09473 15.4824V14.2276C6.09473 14.0963 6.12285 14.0012 6.17863 13.9426C6.23488 13.8835 6.32535 13.8545 6.45004 13.8545H7.55629V10.3913H6.64785C6.5227 10.3913 6.43223 10.3623 6.37598 10.3037C6.3202 10.2446 6.29207 10.1495 6.29207 10.0182V8.76383C6.29207 8.63211 6.3202 8.53742 6.37598 8.47836C6.43223 8.41976 6.5227 8.3907 6.64785 8.3907H9.51098C9.63613 8.3907 9.7266 8.41976 9.78285 8.47836C9.83863 8.53742 9.86629 8.63211 9.86629 8.76383V13.8545H10.8146C10.9393 13.8545 11.0297 13.8835 11.0855 13.9426C11.1418 14.0012 11.1699 14.0963 11.1699 14.2276V15.4824C11.1699 15.6137 11.1418 15.7084 11.0855 15.7674C11.0297 15.826 10.9393 15.8555 10.8146 15.8555ZM19.3294 2.42773H20.4474C20.6752 2.42773 20.8613 2.6143 20.8613 2.84211V4.35945H22.3791C22.6069 4.35945 22.793 4.54602 22.793 4.77383V5.8918C22.793 6.11961 22.6069 6.30617 22.3791 6.30617H20.8613V7.82352C20.8613 8.0518 20.6752 8.23789 20.4474 8.23789H19.3294C19.1016 8.23789 18.915 8.0518 18.915 7.82352V6.30617H17.3972C17.1694 6.30617 16.9829 6.11961 16.9829 5.8918V4.77383C16.9829 4.54602 17.1694 4.35945 17.3972 4.35945H18.915V2.84211C18.915 2.6143 19.1016 2.42773 19.3294 2.42773ZM17.866 13.201V14.207C17.866 14.476 17.8182 14.7221 17.723 14.9429C17.6279 15.1641 17.4643 15.3545 17.2341 15.5129C17.0039 15.6723 16.6927 15.7951 16.3013 15.8813C15.9099 15.9676 15.4177 16.0107 14.8252 16.0107C14.2327 16.0107 13.7386 15.9676 13.3444 15.8813C12.9493 15.7951 12.6366 15.6723 12.4064 15.5129C12.1758 15.3545 12.0127 15.1641 11.9175 14.9429C11.8224 14.7221 11.7746 14.4765 11.7746 14.207V13.201C11.7746 12.7173 11.8749 12.3437 12.0755 12.0812C12.2761 11.8191 12.525 11.6565 12.8208 11.5941C12.6038 11.4971 12.4524 11.3523 12.3671 11.1587C12.2813 10.9651 12.2382 10.6693 12.2382 10.4068V9.80539C12.2382 9.54945 12.2813 9.32117 12.3671 9.12148C12.4519 8.92086 12.5944 8.7493 12.7908 8.60773C12.9886 8.46664 13.2558 8.35695 13.591 8.28148C13.9266 8.20555 14.3414 8.16711 14.835 8.16711C15.3286 8.16711 15.7421 8.20555 16.0744 8.28148C16.4063 8.35695 16.6702 8.46664 16.8643 8.60773C17.0579 8.7493 17.1966 8.92086 17.2786 9.12148C17.3607 9.32117 17.4019 9.55039 17.4019 9.80539V10.4068C17.4019 10.6684 17.3597 10.9651 17.2739 11.1587C17.1882 11.3523 17.0368 11.4971 16.8197 11.5941C17.116 11.6565 17.3644 11.8191 17.565 12.0812C17.7661 12.3437 17.866 12.7177 17.866 13.201ZM14.1385 10.8788C14.1385 10.9862 14.1727 11.0809 14.2421 11.1535C14.311 11.2262 14.5486 11.2623 14.8252 11.2623C15.1083 11.2623 15.3464 11.2252 15.4083 11.1535C15.4697 11.0818 15.5021 10.9895 15.5021 10.8788V10.2873C15.5021 10.1832 15.4702 10.0955 15.4083 10.0229C15.3455 9.95023 15.1083 9.91367 14.8252 9.91367C14.5486 9.91367 14.311 9.95023 14.2421 10.0229C14.1727 10.0955 14.1385 10.1851 14.1385 10.2873V10.8788ZM13.8914 13.8127C13.8914 13.921 13.9482 14.0157 14.0593 14.0874C14.1708 14.1596 14.4699 14.1966 14.8252 14.1966C15.1805 14.1966 15.4777 14.1596 15.586 14.0874C15.6938 14.0157 15.7486 13.9234 15.7486 13.8127V13.1954C15.7486 13.0918 15.6943 13.0037 15.586 12.931C15.4772 12.8588 15.1805 12.8223 14.8252 12.8223C14.4699 12.8223 14.1708 12.8588 14.0593 12.931C13.9472 13.0037 13.8914 13.0932 13.8914 13.1954V13.8127Z" fill="white"/>
<path d="M8.12672 3.05063L17.8125 19.8277C18.1959 19.5427 18.5569 19.2305 18.8939 18.8939C20.6573 17.13 21.7491 14.6925 21.7491 12C21.7491 11.2158 21.6562 10.4536 21.4814 9.72328C22.1831 9.33094 22.7142 8.59922 23.3152 7.99453C23.7586 9.2475 24 10.5956 24 12C24 15.3131 22.6566 18.3136 20.4848 20.4848C18.3136 22.6566 15.3131 24 12 24C8.68688 24 5.68641 22.6566 3.51469 20.4848C1.34344 18.3136 0 15.3131 0 12C0 8.68688 1.34344 5.68641 3.51469 3.51469C5.68641 1.34344 8.68688 0 12 0C14.0344 0 15.9506 0.507187 17.6297 1.40062C16.8478 1.90688 16.343 2.38688 15.9422 3.08109C14.737 2.54766 13.403 2.25094 12 2.25094C10.6237 2.25094 9.31359 2.53641 8.12672 3.05063ZM15.8728 20.9494L6.18703 4.17234C5.80442 4.4568 5.44314 4.76888 5.10609 5.10609C3.34266 6.87 2.25094 9.3075 2.25094 12C2.25094 14.6925 3.34266 17.13 5.10609 18.8939C6.87 20.6573 9.3075 21.7491 12 21.7491C13.3763 21.7491 14.6855 21.4636 15.8728 20.9494Z" fill="#FC363F"/>
</g>
<defs>
<clipPath id="clip0_2_37722">
<rect width="24" height="24" fill="white"/>
</clipPath>
</defs>
</svg>
