<svg width="12" height="14" viewBox="0 0 12 14" fill="none" xmlns="http://www.w3.org/2000/svg">
<path d="M6.89994 4.94997C7.42497 4.27497 7.72492 3.37495 7.72492 2.47498V0H9.5249V2.47498C9.5249 3.375 9.82491 4.19998 10.3499 4.94997C10.8749 5.69995 11.1749 6.52498 11.1749 7.42495V12.75C11.1749 13.1999 10.7999 13.5 10.4249 13.5H7.04987C6.59988 13.5 6.29988 13.125 6.29988 12.75V7.425C6.1499 6.52498 6.37492 5.62497 6.89994 4.94997Z" fill="#3F4448"/>
<path d="M4.27497 5.69922C4.64996 6.29923 4.94997 7.04922 4.94997 7.8742C4.94997 9.59919 3.82498 11.0242 2.47498 11.0242C1.12498 11.0242 0 9.59919 0 7.8742C0 7.04922 0.225018 6.29918 0.675 5.69922H4.27497Z" fill="#3F4448"/>
<path d="M2.84996 9.82422H2.09998V13.1992H2.84996V9.82422Z" fill="#3F4448"/>
<path d="M0.749878 13.5H4.19987C4.04989 13.05 3.29985 12.75 2.47487 12.75C1.6499 12.75 0.974896 13.05 0.749878 13.5Z" fill="#3F4448"/>
<path d="M1.2 12.8L10.8 1.2" stroke="#FC363F" stroke-width="1.2" stroke-linecap="round"/>
</svg>
